<?xml version="1.0" encoding="UTF-8"?>
<svg xmlns="http://www.w3.org/2000/svg" xmlns:xlink="http://www.w3.org/1999/xlink" width="25pt" height="25pt" viewBox="0 0 25 25" version="1.1">
<g id="surface1">
<path style=" stroke:none;fill-rule:nonzero;fill:rgb(0%,0%,0%);fill-opacity:1;" d="M 17.730469 0.5625 C 15.628906 0.5625 13.660156 1.511719 12.347656 3.109375 C 11.039062 1.511719 9.070312 0.5625 6.96875 0.5625 C 3.125 0.5625 0 3.6875 0 7.53125 C 0 10.539062 1.792969 14.019531 5.332031 17.871094 C 8.054688 20.839844 11.019531 23.136719 11.863281 23.769531 L 12.347656 24.136719 L 12.835938 23.769531 C 13.679688 23.136719 16.644531 20.839844 19.367188 17.871094 C 22.90625 14.019531 24.699219 10.539062 24.699219 7.53125 C 24.699219 3.6875 21.570312 0.5625 17.730469 0.5625 Z M 18.167969 16.769531 C 15.929688 19.210938 13.519531 21.183594 12.347656 22.09375 C 11.179688 21.183594 8.769531 19.210938 6.53125 16.769531 C 3.324219 13.277344 1.628906 10.082031 1.628906 7.53125 C 1.628906 4.585938 4.023438 2.191406 6.96875 2.191406 C 8.90625 2.191406 10.695312 3.246094 11.636719 4.945312 L 12.347656 6.230469 L 13.0625 4.945312 C 14.003906 3.246094 15.789062 2.191406 17.730469 2.191406 C 20.671875 2.191406 23.066406 4.585938 23.066406 7.53125 C 23.066406 10.082031 21.375 13.277344 18.167969 16.769531 Z M 18.167969 16.769531 "/>
</g>
</svg>
